<?xml version="1.0" encoding="UTF-8" standalone="no"?>
<svg
   xmlns:dc="http://purl.org/dc/elements/1.1/"
   xmlns:cc="http://creativecommons.org/ns#"
   xmlns:rdf="http://www.w3.org/1999/02/22-rdf-syntax-ns#"
   xmlns:svg="http://www.w3.org/2000/svg"
   xmlns="http://www.w3.org/2000/svg"
   xmlns:sodipodi="http://sodipodi.sourceforge.net/DTD/sodipodi-0.dtd"
   xmlns:inkscape="http://www.inkscape.org/namespaces/inkscape"
   version="1.1"
   id="svg2"
   xml:space="preserve"
   width="533.33331"
   height="752.41333"
   viewBox="0 0 533.33331 752.41333"
   sodipodi:docname="css3.eps"><metadata
     id="metadata8"><rdf:RDF><cc:Work
         rdf:about=""><dc:format>image/svg+xml</dc:format><dc:type
           rdf:resource="http://purl.org/dc/dcmitype/StillImage" /></cc:Work></rdf:RDF></metadata><defs
     id="defs6" /><sodipodi:namedview
     pagecolor="#ffffff"
     bordercolor="#666666"
     borderopacity="1"
     objecttolerance="10"
     gridtolerance="10"
     guidetolerance="10"
     inkscape:pageopacity="0"
     inkscape:pageshadow="2"
     inkscape:window-width="640"
     inkscape:window-height="480"
     id="namedview4" /><g
     id="g10"
     inkscape:groupmode="layer"
     inkscape:label="ink_ext_XXXXXX"
     transform="matrix(1.3333333,0,0,-1.3333333,0,752.41333)"><g
       id="g12"
       transform="scale(0.1)"><path
         d="m 1420,5383.13 v 260 H 800 v -760 h 620 v 260 h -360 v 240 h 360"
         style="fill:#000000;fill-opacity:1;fill-rule:nonzero;stroke:none"
         id="path14" /><path
         d="m 2300,5643.13 h -620 v -266.88 l 258.71,-233.12 H 1680 v -260 h 620 v 253.12 l -235.2,246.88 H 2300 v 260"
         style="fill:#000000;fill-opacity:1;fill-rule:nonzero;stroke:none"
         id="path16" /><path
         d="m 3200,5643.13 h -620 v -266.88 l 248.71,-233.12 H 2580 v -260 h 620 v 253.12 l -245.2,246.88 H 3200 v 260"
         style="fill:#000000;fill-opacity:1;fill-rule:nonzero;stroke:none"
         id="path18" /><path
         d="M 364.023,453.48 0,4536.25 H 4000 L 3635.59,454.148 1997.58,0 364.023,453.48"
         style="fill:#0071bc;fill-opacity:1;fill-rule:nonzero;stroke:none"
         id="path20" /><path
         d="M 2003.36,347.352 3325.31,711.02 3635.04,4196.25 H 2003.36 V 347.352"
         style="fill:#29abe2;fill-opacity:1;fill-rule:nonzero;stroke:none"
         id="path22" /><path
         d="m 833.242,2696.25 43.848,-500 1126.27,500 v 500.81 L 833.242,2696.25"
         style="fill:#b3b3b3;fill-opacity:1;fill-rule:nonzero;stroke:none"
         id="path24" /><path
         d="M 3250.74,3731.65 2003.36,3197.06 v -500.81 l 1204.37,535.4 43.01,500"
         style="fill:#e6e6e6;fill-opacity:1;fill-rule:nonzero;stroke:none"
         id="path26" /><path
         d="m 2003.36,1388.01 -3.87,-0.58 -558.55,150 -36.49,398.82 H 901.758 l 70.156,-785.7 1027.466,-284.491 3.98,0.941 v 521.01"
         style="fill:#e6e6e6;fill-opacity:1;fill-rule:nonzero;stroke:none"
         id="path28" /><path
         d="m 2003.36,2696.25 v -500 h 611.52 L 2559.3,1542.54 2003.36,1387.58 V 866.609 L 3027.42,1151.1 3162.27,2696.25 H 2003.36"
         style="fill:#ffffff;fill-opacity:1;fill-rule:nonzero;stroke:none"
         id="path30" /><path
         d="M 2003.36,2696.25 H 833.242 l 43.848,-500 h 1126.27 v 500"
         style="fill:#e6e6e6;fill-opacity:1;fill-rule:nonzero;stroke:none"
         id="path32" /><path
         d="m 2003.36,3231.65 v 500 H 744.336 l 44.375,-500 H 2003.36"
         style="fill:#e6e6e6;fill-opacity:1;fill-rule:nonzero;stroke:none"
         id="path34" /><path
         d="m 2003.36,3731.65 v -500 h 1204.37 l 43.01,500 H 2003.36"
         style="fill:#ffffff;fill-opacity:1;fill-rule:nonzero;stroke:none"
         id="path36" /></g></g></svg>
